PathFileType	4	(X/Y/Z)	D:\TRACE\spotREDO_2-26-24\spot_justArm_Motion_3_2-v60.trc
DataRate	CameraRate	NumFrames	NumMarkers	Units	OrigDataRate	OrigDataStartFrame	OrigNumFrames
100.00	100.00	      17	9	mm	100.00	876	      7000
Frame#	Time	front left toe			Front right toe			aft left toe			aft right toe			Arm			FL body			FR body			AL Body			AR Body			
		X1	Y1	Z1	X2	Y2	Z2	X3	Y3	Z3	X4	Y4	Z4	X5	Y5	Z5	X6	Y6	Z6	X7	Y7	Z7	X8	Y8	Z8	X9	Y9	Z9	

876	8.750	-184.93033	11.78375	-274.35223	302.32489	12.72893	-238.39194	-220.09659	35.80902	335.46417	265.18991	38.42899	378.20749	-42.09639	670.91357	-809.79602	5.63673	527.36151	-324.33585	160.79042	530.87103	-317.81473	-40.34519	582.05780	556.51831	107.08366	581.88116	564.83453	
877	8.760	-185.07457	11.86765	-274.22284	301.99527	12.98278	-238.27142	-220.26239	35.59016	335.47617	265.07336	38.32456	378.32822	-42.10640	671.01843	-809.78961	5.56885	527.49304	-324.27713	160.61667	530.94080	-317.71140	-40.47579	582.08820	556.70917	107.05093	581.82166	564.89526	
878	8.770	-185.25317	12.01219	-274.21536	301.64758	13.13705	-238.20927	-220.40176	35.22472	335.67264	264.98764	38.19796	378.38156	-40.32405	671.31531	-808.06805	5.57161	527.65521	-324.08859	160.51323	531.14972	-317.59222	-40.49993	581.99457	556.86072	106.81901	581.66779	564.96204	
879	8.780	-185.46402	12.19409	-274.15378	301.33835	13.27158	-238.15698	-220.60286	34.88539	335.74942	264.94299	38.10188	378.49515	-42.39026	670.96454	-809.88715	5.41469	528.02301	-323.97684	160.42030	531.52167	-317.47870	-41.05161	581.81927	556.61200	106.57838	581.48547	565.07288	
880	8.790	-185.74992	12.48639	-274.10269	301.05347	13.39016	-238.15657	-220.81013	34.71684	335.82779	264.55661	37.82247	378.51538	-42.85655	670.41846	-810.56329	5.42221	528.53125	-323.78345	160.05925	531.97437	-317.36340	-40.97929	581.46375	557.13116	106.44181	581.14539	565.29364	
881	8.800	-185.97171	12.63383	-273.96036	301.21658	13.48666	-237.88791	-221.10930	34.65407	335.89148	264.19476	37.55535	378.55264	-43.10202	669.43005	-811.91614	5.32977	528.94733	-323.55267	160.12074	532.17212	-316.76340	-40.90190	581.25208	557.56348	107.03194	580.81561	566.10284	
882	8.810	-186.17236	12.81054	-273.90921	301.08731	13.59736	-237.77063	-221.32808	34.63184	335.97235	263.98276	37.30247	378.64041	-43.18456	667.89453	-813.17682	4.91284	529.24664	-323.31552	159.85010	532.66199	-316.95059	-40.92686	581.16144	557.69806	106.72074	580.75836	565.80231	
883	8.820	-186.45277	12.99585	-273.78488	300.90540	13.74940	-237.62924	-221.46396	34.57192	336.10492	263.92249	37.16564	378.70660	-43.34950	666.46680	-814.63544	4.72497	529.31696	-323.15509	159.63142	532.76013	-316.71793	-40.92321	581.10272	558.00464	106.82888	580.76019	566.15247	
884	8.830	-186.66222	13.00578	-273.66370	300.69345	13.75769	-237.63821	-221.55540	34.53843	336.22147	263.66141	36.86173	378.76053	-43.27383	664.65637	-815.77386	4.37268	529.21228	-322.98831	159.32755	532.66467	-316.55841	-41.06664	581.04712	558.12421	106.70335	580.82471	566.31354	
885	8.840	-186.82889	12.96965	-273.53610	300.52133	13.72085	-237.71121	-221.71692	34.50997	336.26376	263.36862	36.68368	378.88330	-41.18982	662.93250	-814.69336	3.88040	528.96960	-322.80490	158.87614	532.43036	-316.45667	-41.08714	581.16083	558.34326	106.95354	581.06824	566.91968	
886	8.850	-186.97128	13.00284	-273.47018	300.31400	13.58325	-237.93292	-221.84204	34.39644	336.32327	263.11166	36.49770	378.86526	-42.57473	661.25189	-816.66437	3.67684	528.60217	-322.77548	158.72478	532.26752	-316.38458	-41.20790	581.19330	558.40649	106.17000	581.14746	566.43652	
887	8.860	-187.15236	13.05557	-273.44012	300.14233	13.66617	-237.95575	-222.06406	34.28897	336.34689	263.04874	36.50381	378.97247	-42.03375	659.59381	-816.47675	3.48949	528.35217	-322.75879	158.56183	531.99817	-316.29910	-41.33912	581.29810	558.40979	106.09030	581.22437	566.44141	
888	8.870	-187.34996	13.19051	-273.41171	299.94592	13.75592	-237.98671	-222.21844	34.21919	336.40808	263.02039	36.50755	379.06595	-41.52449	658.47107	-816.36157	3.19239	528.21387	-322.76929	158.31909	531.81964	-316.27127	-41.60313	581.37665	558.38116	105.96592	581.19452	566.44409	
889	8.880	-187.63560	13.23309	-273.45184	299.61304	13.78406	-237.95961	-222.50075	34.20396	336.36060	262.96307	36.58161	379.24335	-41.29351	657.29364	-816.04541	3.10959	527.95270	-322.72772	158.11798	531.66467	-316.18372	-42.08018	581.37286	558.10608	105.71040	581.22955	566.47388	
890	8.890	-187.83839	13.33645	-273.45038	299.37537	13.76440	-237.88222	-222.60497	34.02565	336.33075	262.80310	36.52817	379.28357	-41.18771	656.95142	-815.97754	3.07250	527.81995	-322.70322	158.03766	531.56372	-316.15283	-42.15557	581.34534	558.38489	105.28353	581.22632	566.41815	
891	8.900	-187.97934	13.40738	-273.47406	299.10202	13.83600	-237.78795	-222.86989	33.80731	336.35675	262.55255	36.40776	379.29819	-39.17944	656.88959	-814.04663	3.14747	527.72107	-322.68744	157.95387	531.55536	-316.11368	-42.56782	581.10931	558.44336	104.79633	580.99078	566.34729	
892	8.910	-188.14264	13.56289	-273.48709	298.86856	13.93332	-237.59700	-223.15530	33.52534	336.33075	262.34390	36.32921	379.44803	-39.63835	656.67810	-814.29474	2.99878	527.78308	-322.67926	157.87976	531.60474	-316.01855	-43.14960	580.97626	558.59363	104.18719	580.87897	566.50366	
